<svg xmlns="http://www.w3.org/2000/svg" viewBox="0 0 580.11 718.25"><title>gundie</title><g id="bf5c5d47-4efa-425b-bc88-1bf283acac7b" data-name="Layer 2"><g id="fc219d58-dfa1-49bd-91ef-56d1d1ebc19d" data-name="Layer 3"><path d="M187.15,34.7c2-.69,3.74-1.23,5.6-1.78s3.7-1,5.55-1.52q5.56-1.42,11.17-2.54c3.75-.73,7.5-1.42,11.28-2s7.56-1,11.35-1.46l2.34-.25L236,27.05h0l.23.29.15.21.24.35c.16.23.27.43.4.66a13.61,13.61,0,0,1,.65,1.25,21.34,21.34,0,0,1,1,2.48,27.16,27.16,0,0,1,1.07,4.91A34.27,34.27,0,0,1,240,42c0,.79-.08,1.57-.12,2.36l-.26,2.32h0l-.38,3.39-3.54.49c-7.57,1-15.3,2.45-22.89,4S197.61,58,190.17,60.06c-1.87.49-3.71,1.08-5.56,1.63s-3.71,1.1-5.52,1.74l-5.46,1.85-5.37,2.06a118.36,118.36,0,0,0-20.17,10.09h0l2-5.26c.33,1.37.54,2.51.76,3.76s.39,2.45.54,3.68a58.29,58.29,0,0,1,.46,7.52,38.53,38.53,0,0,1-.75,7.82,23.1,23.1,0,0,1-3.21,8h0l-2.83-6.79-.1,0h.25c.14,0,.27,0,.41-.06a2,2,0,0,0,.64-.27,1.75,1.75,0,0,0,.45-.41,4,4,0,0,0,.42-.66h0l13-18.68-4.3,21.84c-.08.42-.14.64-.21.94l-.21.81c-.13.53-.29,1-.45,1.55q-.48,1.53-1.05,3a52.67,52.67,0,0,1-2.62,5.71,53.84,53.84,0,0,1-7.13,10.28h0l-2-7.23c-.13,0-.1,0-.09,0h.21c.11,0,.26,0,.39,0a4.07,4.07,0,0,0,.84-.13,5.13,5.13,0,0,0,1.55-.64,6.52,6.52,0,0,0,1.38-1.18c.23-.2.42-.53.64-.77l.6-.91h0l8.22-10.82,1.39,13.32c.16,1.53.24,2.79.3,4.15s.1,2.67.11,4,0,2.65,0,4l-.2,4a100,100,0,0,1-2.31,15.8c-.54,2.63-1.37,5.2-2.13,7.79-.95,2.54-1.79,5.12-3,7.58a70.28,70.28,0,0,1-3.8,7.3c-.7,1.19-1.53,2.31-2.3,3.46l-1.18,1.71-1,1.46a67.66,67.66,0,0,0-7.05,12,54.58,54.58,0,0,0-4.14,13,48.07,48.07,0,0,0-.55,13.43,43.4,43.4,0,0,0,3.31,12.76h0l-3.39,8a4.92,4.92,0,0,0,.58-.26l.2-.11.27-.16c.11-.09.1-.08.14-.1l.08-.07c.15-.14.11-.08.13-.11s0,0-.05.07-.06.08-.11.16-.21.34-.32.57l-.35.74a26.89,26.89,0,0,0-1.21,3.82c-.37,1.38-.61,2.88-.88,4.36s-.46,3-.58,4.61-.31,3.12-.38,4.72-.19,3.17-.21,4.78c-.12,3.2-.08,6.44-.08,9.67l-.47-2.24c1.11,2.69,2.08,5.23,3,7.87s1.84,5.25,2.66,7.93a124.39,124.39,0,0,1,4.1,16.53c.26,1.42.43,2.91.6,4.39.1.72.13,1.53.18,2.3l.12,2.25.14,3.7.4,3.61A52.58,52.58,0,0,0,142,325.25a49.83,49.83,0,0,0,7.66,12.17c.18.23.37.4.55.61s.38.41.54.55.4.4.33.33h0l-.16-.11a3.68,3.68,0,0,0-.63-.39,4.85,4.85,0,0,0-.69-.26l-.18-.05,0,0-.15,0c-.08,0,.57.05,1.09.05s1.18,0,1.79,0c2.52-.05,5.16-.2,7.8-.38,10.59-.75,21.3-1.91,31.89-3.28,5.3-.7,10.59-1.45,15.79-2.36a92.39,92.39,0,0,0,14.71-3.95c4.9-1.71,9.88-3.74,15.05-5.67a155,155,0,0,1,16-5.15,114.29,114.29,0,0,1,16.89-2.94c1.45-.11,2.83-.29,4.35-.34.78,0,1.56,0,2.32,0l2.26.06a72.89,72.89,0,0,1,8.79,1l4,.73a24.21,24.21,0,0,0,3.17.42,3.64,3.64,0,0,0,.53,0s0,0,0,0h-.08a.27.27,0,0,0-.14.07c-.1,0-.34.15-.38.24l3.1-2.56,12.41-10.24,7.7,9.21-12.62,10.4-3.15,2.61a12.53,12.53,0,0,1-2.12,1.27c-.36.15-.72.29-1.09.42l-.56.18-.49.1a14.28,14.28,0,0,1-3.5.29,34.77,34.77,0,0,1-4.87-.61l-4-.71a59.15,59.15,0,0,0-7.31-.84l-1.8-.05-1.74,0c-1.17,0-2.48.21-3.72.3a102.87,102.87,0,0,0-15,2.61,144,144,0,0,0-14.82,4.78c-5,1.84-10,3.9-15.3,5.75a103.61,103.61,0,0,1-16.6,4.44c-5.45,1-10.87,1.73-16.29,2.44-10.85,1.4-21.65,2.57-32.63,3.35-2.76.19-5.51.35-8.4.41-.74,0-1.47,0-2.27,0a18.48,18.48,0,0,1-2.94-.23l-.65-.14-.16,0-.3-.09a6.55,6.55,0,0,1-.92-.37,7.37,7.37,0,0,1-.87-.48,2.67,2.67,0,0,1-.26-.17l-.1-.08-.39-.32c-.6-.49-.8-.72-1.15-1.05s-.6-.61-.87-.91-.57-.59-.81-.88a61.67,61.67,0,0,1-9.59-15.17,64.84,64.84,0,0,1-5-17.1l-.49-4.45c-.08-1.47-.12-2.93-.18-4.4l0-.53,0-.42,0-.85c0-.57,0-1.12-.14-1.74-.14-1.2-.27-2.41-.5-3.64a112.23,112.23,0,0,0-3.71-14.93c-.77-2.49-1.62-5-2.5-7.44s-1.84-5-2.8-7.27l-.46-1.14v-1.1c0-3.4,0-6.79.08-10.22,0-1.71.13-3.44.24-5.16s.25-3.46.41-5.2.44-3.5.66-5.26.62-3.56,1.09-5.39a39.19,39.19,0,0,1,1.83-5.64l.71-1.51c.26-.51.6-1.06.91-1.58.17-.27.4-.58.6-.86a8.25,8.25,0,0,1,.73-.89,10.41,10.41,0,0,1,1-1l.33-.26a3.27,3.27,0,0,1,.38-.29l.53-.34.13-.08.21-.11a5.83,5.83,0,0,1,.72-.32l-3.4,8h0a55.63,55.63,0,0,1-4.09-16.45,59.76,59.76,0,0,1,.87-16.69,65.26,65.26,0,0,1,5.16-15.68,78.36,78.36,0,0,1,8.35-13.93l1.17-1.62,1-1.4c.63-.94,1.33-1.83,1.93-2.81a61.72,61.72,0,0,0,3.24-6.07c1-2.06,1.78-4.28,2.64-6.45.67-2.24,1.43-4.46,1.93-6.78a91.82,91.82,0,0,0,2.22-14.07l.21-3.58c0-1.19.09-2.39.08-3.58s0-2.38-.06-3.56-.11-2.42-.2-3.39l9.61,2.49h0c-.47.55-.93,1.1-1.44,1.63a18.73,18.73,0,0,1-1.67,1.52,16.32,16.32,0,0,1-4,2.41,14.91,14.91,0,0,1-4.69,1.09,13.86,13.86,0,0,1-2.41,0c-.41-.05-.81-.1-1.23-.18l-.64-.15-.35-.09-.48-.15-6.61-2,4.61-5.21h0a46.22,46.22,0,0,0,3.12-4.14,42,42,0,0,0,2.63-4.48,42.46,42.46,0,0,0,2.08-4.75c.3-.8.57-1.62.81-2.43.11-.4.24-.81.33-1.2l.14-.58.1-.46,8.69,3.16h0a12.53,12.53,0,0,1-2.11,2.61,10.78,10.78,0,0,1-2.91,2,11.14,11.14,0,0,1-3.31,1,13.09,13.09,0,0,1-1.66.1c-.28,0-.56,0-.85,0l-.45,0-.26,0-.36-.06-5.66-1,2.84-5.8h0a14.6,14.6,0,0,0,1.69-4.88,29.37,29.37,0,0,0,.38-6,49.42,49.42,0,0,0-.57-6.35c-.16-1.06-.35-2.13-.56-3.18s-.46-2.17-.7-3l-1-3.49,3-1.77h0a127.39,127.39,0,0,1,22-10.88l5.66-2.12,5.71-1.9c1.9-.66,3.83-1.19,5.75-1.77s3.83-1.16,5.76-1.65c7.7-2.13,15.47-3.88,23.27-5.46s15.58-2.93,23.59-4l-3.91,3.87h0l.19-1.82c0-.6.08-1.21.08-1.81a23.71,23.71,0,0,0-.18-3.5,18,18,0,0,0-.72-3.22,12.76,12.76,0,0,0-.56-1.4,5.4,5.4,0,0,0-.3-.59c0-.07-.11-.18-.15-.23l-.05-.08h0l.06.08h0l3.9,1.62c-3.66.28-7.33.6-11,1s-7.29,1-10.92,1.54-7.24,1.31-10.82,2.11c-1.79.39-3.57.82-5.34,1.27s-3.57,1-5.16,1.46Z"/><path d="M221,120.86a24.55,24.55,0,0,1-8.4-1.42c-1.7-.66-3.38-1.34-5.38-2.15-3.95-1.59-9.35-3.78-18.75-7.3-15.48-5.78-15.06-15.47-14.8-21.26,0-.65,0-1.27,0-1.87h9c0,.72,0,1.48-.06,2.26-.22,5-.4,8.95,9,12.44,9.51,3.56,15,5.77,19,7.39,1.94.79,3.58,1.45,5.23,2.09,2.27.87,7.88,1.57,11.17-.69.73-.5,3-2,3-7.33V81.35a11.59,11.59,0,0,1,1.94-6.85,2.68,2.68,0,0,0,.55-2,13.35,13.35,0,0,0-.45-3.3c-.58-2.59-1.36-6.12-1.36-15.22h9c0,8.11.66,11.09,1.14,13.26a21.48,21.48,0,0,1,.67,5.26,11.35,11.35,0,0,1-1.91,6.71,2.93,2.93,0,0,0-.58,2.1V103c0,8.3-3.73,12.6-6.86,14.75A19.55,19.55,0,0,1,221,120.86Z"/><path d="M271.73,289.09h-10a1.26,1.26,0,0,0-.29-.83H225v-10h38.72l.85.31A11.28,11.28,0,0,1,271.73,289.09Z"/><path d="M181,287.24l-6.92-5.75c.09-.11,9.8-12.1,9.28-26.26l-.18-4.77,4.77.1c.28,0,28.43.6,34.58.75,1.42-.31,5.3-3.48,7.88-5.58,6.23-5.08,14-11.41,22-11.51,11.13-.15,27.74,0,27.9,0l3.56,0-1.8-2.17-6.7.06-.2-22.5,27.77,33.51-22.64.12c-.23,0-16.74-.15-27.77,0-4.85.06-11.25,5.28-16.39,9.48s-9.46,7.67-13.68,7.61c-4.46-.11-21.86-.48-30.18-.65C191,275,181.48,286.7,181,287.24Z"/><path d="M408.61,317.28l-17-3.48-.9-.8c-.37-.33-3.69-3.41-7.7-11.44-2.24-4.48-9.31-8.51-12.55-10H307.67v-9h64.67l.84.36c1.37.58,13.52,5.94,17.88,14.65a42.13,42.13,0,0,0,5,8l9.77,2,2.14-2a21,21,0,0,1-8.75-9l-1.13-2.08,2.81-5.56H393v-9h22.5l-7.2,14.25c2.32,3.15,4.73,3.8,5.17,3.9l4.12.23-.19,4.16.11,6.36Z"/><path d="M420.59,288.91c-.87,0-1.47-.05-1.68-.07l.84-9c1.26.11,5.38,0,7.41-1.87.59-.55,1.37-1.53,1.37-3.83,0-5.75-7.35-5.93-8.19-5.93l-25.83.1L390,272.07l-5-3.94H361.17l-5.55,4.48L351,268H326.86L323,264.14H306v-9h20.76l3.84,3.84h24.14l1.55,1.55,1.72-1.4h30.18l1.72,1.36,1.36-1.13,29.08-.11c6.93,0,17.2,4,17.2,14.93a13.76,13.76,0,0,1-4.33,10.5C429.12,288.39,423.43,288.91,420.59,288.91Z"/><path d="M214.76,99.75a4.89,4.89,0,0,1-1.91-.32c-3.43-1.47-2.93-6.16-1.32-10.06l.53-1.29,12.84-2.16.83,4.93-10,1.69a10.53,10.53,0,0,0-.44,2.24,51.48,51.48,0,0,0,10.6-3.38l1.94,4.6C223.49,97.82,218.11,99.75,214.76,99.75Z"/><polygon points="146.43 488.56 134.8 485.6 154.16 409.46 157.8 358.3 169.77 359.15 166.05 411.38 146.43 488.56"/><polygon points="240.45 489.81 229.76 484.35 266.7 412.04 383.95 439.44 375.41 488.12 363.59 486.04 370.17 448.54 273.11 425.87 240.45 489.81"/><path d="M441,488.3l-11.75-2.44c.08-.4,8.47-40.7,15-68.28,4.43-18.84,1.34-20.75-18.74-33.2-4.27-2.65-9.11-5.65-14.61-9.3C380.66,355,347,347.73,346.61,347.66l-3.67-.78-2.62-10.54a137.94,137.94,0,0,1-17.8-4.51l-1.49-.46-3.93-4.14,8.7-8.26,1.76,1.85c6.65,2,14.43,3.94,16.62,3.94h0l5.35-1,3.23,13c10,2.52,38.28,10.74,64.71,28.28,5.35,3.55,10.1,6.5,14.3,9.1,20.31,12.59,30.51,18.91,24.1,46.15C449.44,447.76,441.09,487.9,441,488.3ZM344,324.79h0Z"/><path d="M540.48,718.25H45.2v-236H540.48Zm-483.28-12H528.48v-212H57.2Z"/><path d="M192.51,245.53l-4.5-.1-4.5,0a9.13,9.13,0,0,0-1-3.61,30,30,0,0,1-1.62-23,18.51,18.51,0,0,1,10-11.14l3.54,8.27a9.88,9.88,0,0,0-5.13,5.94,21.36,21.36,0,0,0,1.18,15.92A17.64,17.64,0,0,1,192.51,245.53Z"/><path d="M142.1,66.18c-.63,0-1.09,0-1.27-.05l-8.26-.66,4.43-7c2.18-3.43,2.57-6.33,3.24-12.56a27.4,27.4,0,0,1,3.37-10.07l-1.94-1.28,3.77-9.72c2.61-6.75,7.86-14.79,14.79-17.13,4.74-1.6,13.42-5.36,13.5-5.4l4.56-2,1.48,3.36H180A25.12,25.12,0,0,1,193.58.5h.16c7.65.88,10.65.6,11.47.47L207,0l2.34,1.19a15.11,15.11,0,0,0,3.13,1.15A47.57,47.57,0,0,1,220,5.09a24.4,24.4,0,0,1,11.45,11l-9,4.28a14.74,14.74,0,0,0-6.53-6.19A37.87,37.87,0,0,0,209.75,12a28.91,28.91,0,0,1-3.19-1.06c-2.32.32-6.43.41-13.88-.44A15.91,15.91,0,0,0,184,12.93l-.95.58-1.11.12a13.61,13.61,0,0,1-7-1c-3.09,1.3-8.1,3.36-11.51,4.51-2.87,1-6.52,5.71-8.67,11.27l-.86,2.22,4,2.68-3.57,4.28s-3.69,4.55-4.2,9.35a62.2,62.2,0,0,1-1.49,9.44l6.36,3.38C152,65.54,145.06,66.18,142.1,66.18Z"/><path d="M178.82,161.77l-1.49-8.88c10.91-1.84,29.69-5.41,33.6-7.17l1.51-.68,9.4,2.73.81-7,2.19-1.09c2.75-1.36,10.66-5.83,14.12-10l6.91,5.76c-4,4.8-11.21,9.13-14.83,11.12l-1.48,12.75L213,154.56C204.65,157.38,181.61,161.3,178.82,161.77Z"/><path d="M140.4,615.68h26.2v2.07a42.12,42.12,0,0,1-1.69,12.51,26.5,26.5,0,0,1-5.54,9.43,28.87,28.87,0,0,1-22.46,9.83A31,31,0,0,1,114.12,640a32.51,32.51,0,0,1,.16-46.07,33.66,33.66,0,0,1,37.37-6.54,40.08,40.08,0,0,1,12.11,9.75L157,603.61q-7.8-10.27-19-10.28a23.38,23.38,0,0,0-23.7,23.77,22.16,22.16,0,0,0,7.6,17.27q7.11,6.28,15.4,6.29A19.24,19.24,0,0,0,149.93,636a16.72,16.72,0,0,0,6.28-11.37H140.4Z"/><path d="M188.2,585.62V623.4q0,8.08,2.67,11.82a14.38,14.38,0,0,0,22.46,0Q216,631.6,216,623.4V585.62h9.56V626q0,9.91-6.24,16.33a24.32,24.32,0,0,1-34.45,0q-6.24-6.42-6.24-16.33V585.62Z"/><path d="M240.76,648.34v-67L287,629.21V585.62h9.57v66.54l-46.24-47.73v43.91Z"/><path d="M311.75,648.34V585.62h13.31q9.57,0,15.11,1.87A28.29,28.29,0,0,1,351,593.7q9.81,8.87,9.81,23.28t-10.22,23.4a29.83,29.83,0,0,1-10.76,6.21c-3.51,1.17-8.47,1.75-14.91,1.75Zm9.57-8.9h4.31a36.16,36.16,0,0,0,10.72-1.34,21.64,21.64,0,0,0,7.72-4.51q7.06-6.37,7.06-16.61t-7-16.74q-6.28-5.73-18.52-5.73h-4.31Z"/><path d="M382.38,585.62v62.72h-9.57V585.62Z"/><path d="M432.6,594.51H407.18v15.07h24.68v8.9H407.18v21H432.6v8.9h-35V585.62h35Z"/><path d="M481,595l-7.76,4.55c-1.45-2.49-2.83-4.12-4.15-4.87a9.71,9.71,0,0,0-5.29-1.31,9.84,9.84,0,0,0-6.61,2.24,6.86,6.86,0,0,0-2.63,5.52q0,4.6,6.9,7.4l6.32,2.56q7.72,3.09,11.29,7.53a16.88,16.88,0,0,1,3.57,10.91,19,19,0,0,1-5.83,14.3,20.12,20.12,0,0,1-14.57,5.69q-8.26,0-13.64-4.84T442,631l9.69-2.11c.44,3.69,1.21,6.23,2.3,7.64q3,4.07,8.63,4.06a10.08,10.08,0,0,0,7.43-3,10.23,10.23,0,0,0,3-7.52,10.46,10.46,0,0,0-.52-3.35,8.27,8.27,0,0,0-1.6-2.8,12.32,12.32,0,0,0-2.81-2.4,26.08,26.08,0,0,0-4.11-2.13l-6.12-2.52q-13-5.45-13-15.93a15,15,0,0,1,5.46-11.82,19.88,19.88,0,0,1,13.59-4.79Q474.86,584.4,481,595Z"/><path d="M275.28,542.47v15.85H270V542.47h-4.34V538h14v4.48Z"/><path d="M287.25,545.84h7.63V538h5.28v20.33h-5.28v-8.39h-7.63v8.39H282V538h5.28Z"/><path d="M316,542.47H309.7v3.39h5.93v4.48H309.7v3.5H316v4.48H304.42V538H316Z"/><rect x="286.87" y="245.49" width="36.53" height="7"/><rect x="332.98" y="545" width="36.53" height="7"/><rect x="214.63" y="545" width="36.53" height="7"/><rect x="305.13" y="235.35" width="18.26" height="7"/><rect y="706.25" width="81.83" height="12"/><rect x="506.01" y="706.25" width="74.1" height="12"/><rect x="352.99" y="13.66" width="11" height="64.15" transform="translate(-1.84 73.46) rotate(-11.67)"/><path d="M356.5,139.67l-5.42-1.83c-14.4-4.88-35.32.08-35.52.13l-3.24.78-2.19-2.5c-5.77-6.57-18.45-10.55-22.85-11.53l-.55-.12-.52-.24c-6.85-3.09-24.47-3.18-34-2.5l-.78-11c2.76-.2,27-1.74,38.76,3.22,3,.72,16.95,4.45,25.84,12.52,6.14-1.17,20.3-3.27,33-.69l8.48-28.79,10.56,3.11Z"/><path d="M304.65,226.17l-10.41-3.57,5.21,1.79-5.21-1.78c.07-.22,7.34-22.22-2-42l-5.34-11.35,12,3.76c3.93,1.23,22.52,7.09,27,8.65,1.05-.12,3.39-.64,5.49-1.11a170.22,170.22,0,0,1,18.43-3.28c14.13-1.64,25-5.23,28.11-7.77,4.07-3.37,8.6-22.75,8.59-45.18,0-3.71-.43-8-.89-12.59-1.08-10.76-2.42-24.15,1-38.48,1.12-4.65-7.34-9-9.67-10l4-10.25c7.43,2.88,19.24,10.92,16.37,22.79-3,12.51-1.84,24.35-.79,34.79.48,4.85.94,9.43.94,13.69a167.23,167.23,0,0,1-2.92,31.48c-2.3,11.44-5.46,18.69-9.66,22.17-6.53,5.4-21.77,8.82-33.86,10.22a163.68,163.68,0,0,0-17.29,3.1c-5.71,1.27-8.58,1.91-11.22.86-1.09-.43-8.69-2.87-16.46-5.34C311.09,207,305,225.27,304.65,226.17Z"/><rect x="329.14" y="12.23" width="5" height="14.79" transform="translate(219.78 332.44) rotate(-73.71)"/><rect x="325.84" y="27.36" width="14.21" height="5" transform="matrix(0.96, -0.26, 0.26, 0.96, 3.87, 88.64)"/><rect x="328.75" y="37.35" width="14.74" height="5" transform="translate(70.41 249.53) rotate(-45.04)"/></g></g></svg>