<?xml version="1.0" encoding="utf-8"?>
<!-- Generator: Adobe Illustrator 24.0.3, SVG Export Plug-In . SVG Version: 6.00 Build 0)  -->
<svg version="1.1" id="Layer_1" xmlns="http://www.w3.org/2000/svg" xmlns:xlink="http://www.w3.org/1999/xlink" x="0px" y="0px"
	 viewBox="0 0 895.4 317.7" style="enable-background:new 0 0 895.4 317.7;" xml:space="preserve">
<style type="text/css">
	.st0{fill:#D0C4DF;}
	.st1{fill:#634394;}
	.st2{font-family:'proxima-nova';font-weight: 500;}
	.st3{font-size:76.3771px;}
	.st4{letter-spacing:22;}
</style>
<g>
	<g>
		<path class="st0" d="M316.2,183.8c-12,75.4-77,133.1-155.5,133.9h-1.5C72.2,317.7-0.3,245.2,0,158.1c0.1-18.1,3.1-35.5,8.7-51.6
			c-0.3,1.5-0.4,3-0.4,4.6c0,14,11.3,25.4,25.4,25.4c10.1,0,18.8-5.9,22.8-14.4c-4.1,11.5-6.3,23.7-6.3,36.2
			c-0.1,28.6,11.3,55.9,32.2,76.8c20.9,20.9,48.1,32.4,76.8,32.4h1c28.9-0.3,55.9-11.7,76.2-32.2c16.1-16.2,26.4-36.6,30.1-58.7v0.2
			c0,14,11.3,25.4,25.4,25.4C303.4,202,313.1,194.3,316.2,183.8z"/>
	</g>
	<g>
		<g>
			<path class="st1" d="M318.2,158.6c0,6-0.3,11.9-1,17.7c-0.3,2.5-0.6,5-1,7.5c-3.1,10.5-12.8,18.2-24.3,18.2
				c-14,0-25.4-11.3-25.4-25.4v-0.2c0.4-2.1,0.7-4.3,0.9-6.4c0.4-3.8,0.6-7.6,0.6-11.5c0-1.9-0.1-3.8-0.2-5.7l-0.1-1.2v-44.5
				c0-5.5-5.8-9.1-10.7-6.6c-8.9,4.4-21.4,9.8-29.5,9.8c-14.3,0-28.1-5.2-38.9-14.6l-40.2-35.3c-6.8-5.9-16.2-7.8-24.7-4.9
				c-16.9,5.8-32.3,15.7-44.6,29.1c-9.1,9.8-16.2,21.1-21,33.2c-0.6,1.4-1.1,2.7-1.6,4.1c0,0,0,0,0,0c-4.1,8.5-12.8,14.4-22.8,14.4
				c-14,0-25.4-11.3-25.4-25.4c0-1.6,0.2-3.1,0.4-4.6c1-2.9,2.1-5.7,3.2-8.5C34.1,44.3,84.8,5.3,145.2,0.1c0.7-0.1,1.3-0.1,1.9-0.1
				c5.6,0,10.9,2,15.1,5.7L221.9,58c1.6,1.4,3.7,2.2,5.7,2.2c2,0,4.1-0.7,5.7-2.2L295,13.9c3.3-2.9,7.5-4.5,11.9-4.5
				c6.2,0,11.1,5,11.1,11.1v129.8C318.1,153.1,318.2,155.8,318.2,158.6z"/>
		</g>
		<g>
			<g>
				<path class="st1" d="M346,31.4h83.9c4.2,0,7.6,3.4,7.6,7.6v17.6c0,4.2-3.4,7.6-7.6,7.6h-49c-1.6,0-3,1.3-3,3v9.3
					c0,1.6,1.3,3,3,3h47.6c4.2,0,7.6,3.4,7.6,7.6v17.6c0,4.2-3.4,7.6-7.6,7.6h-47.6c-1.6,0-3,1.3-3,3v10.7c0,1.6,1.3,3,3,3h49
					c4.2,0,7.6,3.4,7.6,7.6v17.6c0,4.2-3.4,7.6-7.6,7.6H346c-4.2,0-7.6-3.4-7.6-7.6V39C338.3,34.8,341.8,31.4,346,31.4z"/>
			</g>
			<g>
				<path class="st1" d="M511,120.2h-9.4c-1.6,0-3,1.3-3,3v31.3c0,4.2-3.4,7.6-7.6,7.6h-24.3c-4.2,0-7.6-3.4-7.6-7.6V39
					c0-4.2,3.4-7.6,7.6-7.6h62.1c30.6,0,47,20.4,47,44.9c0,20.8-11.1,32.6-21,38.3c-1.4,0.8-1.9,2.5-1.2,3.9l16.7,32.5
					c2.6,5.1-1.1,11.1-6.8,11.1H536c-3.1,0-5.8-1.8-7-4.6L513.8,122C513.3,120.9,512.2,120.2,511,120.2z M522.8,64.3h-21.1
					c-1.6,0-3,1.3-3,3v17c0,1.6,1.3,3,3,3h21.1c6.7,0,12.9-4.3,12.9-11.6C535.7,68.6,529.4,64.3,522.8,64.3z"/>
			</g>
			<g>
				<path class="st1" d="M603.5,31.4h24.3c4.2,0,7.6,3.4,7.6,7.6v85.6c0,1.6,1.3,3,3,3h39c4.2,0,7.6,3.4,7.6,7.6v19.2
					c0,4.2-3.4,7.6-7.6,7.6h-73.9c-4.2,0-7.6-3.4-7.6-7.6V39C595.9,34.8,599.3,31.4,603.5,31.4z"/>
			</g>
			<g>
				<path class="st1" d="M712.5,31.4h24.3c4.2,0,7.6,3.4,7.6,7.6v115.5c0,4.2-3.4,7.6-7.6,7.6h-24.3c-4.2,0-7.6-3.4-7.6-7.6V39
					C704.9,34.8,708.3,31.4,712.5,31.4z"/>
			</g>
			<g>
				<path class="st1" d="M809.2,101.5v52.9c0,4.2-3.4,7.6-7.6,7.6h-24.3c-4.2,0-7.6-3.4-7.6-7.6V39c0-4.2,3.4-7.6,7.6-7.6h29.1
					c2.5,0,4.9,1.2,6.3,3.3l37.8,54.7c1.7,2.4,5.4,1.2,5.4-1.7V39c0-4.2,3.4-7.6,7.6-7.6h24.3c4.2,0,7.6,3.4,7.6,7.6v115.5
					c0,4.2-3.4,7.6-7.6,7.6h-26.4c-2.5,0-4.9-1.2-6.3-3.3l-40.5-59C812.9,97.4,809.2,98.6,809.2,101.5z"/>
			</g>
		</g>
	</g>
	<text transform="matrix(1 0 0 1 333.748 240.1321)" class="st0 st2 st3 st4">PANEL</text>
</g>
</svg>
