<svg xmlns="http://www.w3.org/2000/svg" viewBox="0 0 215.59 275.07"><g id="Layer_2" data-name="Layer 2"><g id="Layer_1-2" data-name="Layer 1"><path d="M25.68,220.21a5.48,5.48,0,0,1-4.17,1.53,6.09,6.09,0,0,1-4.32-1.46q-1.55-1.46-1.55-4.64V205.48h1.9v10.16a4.63,4.63,0,0,0,1,3.24,3.82,3.82,0,0,0,2.94,1.1,3.48,3.48,0,0,0,2.78-1.1,4.87,4.87,0,0,0,.95-3.24V205.48h1.91v10.16A6.34,6.34,0,0,1,25.68,220.21Z" fill="#2953a5"/><path d="M34.36,205.48V219.6h7.58v1.78H32.46v-15.9Z" fill="#2953a5"/><path d="M42.5,207.26v-1.78H54v1.78H49.18v14.12H47.27V207.26Z" fill="#2953a5"/><path d="M64.54,205.48a4.41,4.41,0,0,1,3.19,1.11,4.05,4.05,0,0,1,1.16,3,5.16,5.16,0,0,1-.6,2.54,3.07,3.07,0,0,1-1.89,1.5v0a2.41,2.41,0,0,1,1,.45,2.21,2.21,0,0,1,.62.74,3.38,3.38,0,0,1,.34,1,9.72,9.72,0,0,1,.17,1.12c0,.38,0,.78.06,1.18s.05.79.1,1.18a9.3,9.3,0,0,0,.24,1.1,2.72,2.72,0,0,0,.45.92H67.26a1.43,1.43,0,0,1-.27-.66,6.67,6.67,0,0,1-.09-.95c0-.35,0-.73,0-1.13a7.74,7.74,0,0,0-.12-1.18c0-.38-.12-.75-.2-1.1a2.77,2.77,0,0,0-.38-.91,2.05,2.05,0,0,0-.68-.63,2.41,2.41,0,0,0-1.13-.23H59.7v6.79H57.8v-15.9Zm.4,7.22a2.61,2.61,0,0,0,1-.44,2.22,2.22,0,0,0,.72-.87A3.16,3.16,0,0,0,67,210a3.06,3.06,0,0,0-.6-2,2.33,2.33,0,0,0-1.95-.76H59.7v5.55h4A7.41,7.41,0,0,0,64.94,212.7Z" fill="#2953a5"/><path d="M79.79,205.48l5.59,15.9h-2.1l-1.56-4.79H75.66l-1.6,4.79h-2l5.58-15.9Zm1.32,9.33-2.38-7.41h0l-2.43,7.41Z" fill="#2953a5"/><path d="M103.17,205.48a4.15,4.15,0,0,1,3.27,1.24,4.93,4.93,0,0,1,1.12,3.46,5,5,0,0,1-1.12,3.47,4.08,4.08,0,0,1-3.27,1.23H98.8v6.5H96.89v-15.9Zm-.65,7.62a3.17,3.17,0,0,0,2.38-.74,3.53,3.53,0,0,0,0-4.35,3.25,3.25,0,0,0-2.38-.75H98.8v5.84Z" fill="#2953a5"/><path d="M118.88,205.48a4.42,4.42,0,0,1,3.2,1.11,4,4,0,0,1,1.15,3,5.15,5.15,0,0,1-.59,2.54,3.07,3.07,0,0,1-1.89,1.5v0a2.41,2.41,0,0,1,1,.45,2.21,2.21,0,0,1,.62.74,3.71,3.71,0,0,1,.34,1c.07.36.13.73.17,1.12s0,.78.06,1.18,0,.79.1,1.18a9.3,9.3,0,0,0,.23,1.1,2.72,2.72,0,0,0,.45.92h-2.12a1.43,1.43,0,0,1-.27-.66,6.67,6.67,0,0,1-.09-.95c0-.35,0-.73,0-1.13a11.5,11.5,0,0,0-.12-1.18c-.06-.38-.12-.75-.2-1.1a2.77,2.77,0,0,0-.38-.91,2,2,0,0,0-.69-.63,2.36,2.36,0,0,0-1.12-.23h-4.65v6.79h-1.9v-15.9Zm.4,7.22a2.65,2.65,0,0,0,1.06-.44,2.22,2.22,0,0,0,.72-.87,3.16,3.16,0,0,0,.27-1.41,3.06,3.06,0,0,0-.6-2,2.33,2.33,0,0,0-2-.76h-4.73v5.55h4A7.29,7.29,0,0,0,119.28,212.7Z" fill="#2953a5"/><path d="M138,205.48v1.78h-8v5.06h7.44v1.78h-7.44v5.5h8v1.78h-10v-15.9Z" fill="#2953a5"/><path d="M145.3,205.48l4.52,13.36,4.53-13.36H157v15.9h-1.8V208.15h0l-4.47,13.23H149l-4.47-13.23h0v13.23h-1.8v-15.9Z" fill="#2953a5"/><path d="M164.37,205.48v15.9h-1.9v-15.9Z" fill="#2953a5"/><path d="M179.81,220.21a5.51,5.51,0,0,1-4.17,1.53,6.06,6.06,0,0,1-4.32-1.46q-1.56-1.46-1.56-4.64V205.48h1.91v10.16a4.63,4.63,0,0,0,1,3.24,3.83,3.83,0,0,0,2.95,1.1,3.47,3.47,0,0,0,2.77-1.1,4.82,4.82,0,0,0,1-3.24V205.48h1.91v10.16A6.38,6.38,0,0,1,179.81,220.21Z" fill="#2953a5"/><path d="M189.23,205.48l4.51,13.36,4.53-13.36h2.61v15.9h-1.81V208.15h0l-4.47,13.23h-1.62l-4.47-13.23h0v13.23h-1.81v-15.9Z" fill="#2953a5"/><path d="M30.45,271.83h.11L44.22,232h2.43L31.89,274.07H29.07L14.36,232H16.9Z" fill="#2953a5"/><path d="M87.07,253a28.52,28.52,0,0,1-1.27,8.64,21,21,0,0,1-3.68,7,17.09,17.09,0,0,1-5.89,4.69,17.67,17.67,0,0,1-7.9,1.71,17.91,17.91,0,0,1-7.94-1.71,17.06,17.06,0,0,1-5.91-4.69,21,21,0,0,1-3.68-7,30,30,0,0,1,0-17.28,21.15,21.15,0,0,1,3.68-7,17.18,17.18,0,0,1,5.91-4.69A17.91,17.91,0,0,1,68.33,231a17.67,17.67,0,0,1,7.9,1.71,17.2,17.2,0,0,1,5.89,4.69,21.15,21.15,0,0,1,3.68,7A28.61,28.61,0,0,1,87.07,253ZM52,253a25.86,25.86,0,0,0,1.11,7.67,19.1,19.1,0,0,0,3.2,6.28,15.68,15.68,0,0,0,5.15,4.28,14.67,14.67,0,0,0,6.91,1.59,14.52,14.52,0,0,0,6.88-1.59A15.78,15.78,0,0,0,80.33,267a19.1,19.1,0,0,0,3.2-6.28,27.05,27.05,0,0,0,0-15.34,19.2,19.2,0,0,0-3.2-6.28,15.75,15.75,0,0,0-5.12-4.27,14.4,14.4,0,0,0-6.88-1.6,14.55,14.55,0,0,0-6.91,1.6,15.66,15.66,0,0,0-5.15,4.27,19.2,19.2,0,0,0-3.2,6.28A25.91,25.91,0,0,0,52,253Z" fill="#2953a5"/><path d="M94.87,232h12.94a19.51,19.51,0,0,1,8.82,1.77,15.12,15.12,0,0,1,5.61,4.72,18.54,18.54,0,0,1,3,6.73,35.14,35.14,0,0,1,.86,7.78A30.89,30.89,0,0,1,125,261.3a18.6,18.6,0,0,1-3.35,6.7,15.89,15.89,0,0,1-5.72,4.45,19.18,19.18,0,0,1-8.21,1.62H94.87Zm13,39.88a17.78,17.78,0,0,0,5.56-.91,13.47,13.47,0,0,0,5.06-3.07,15.66,15.66,0,0,0,3.67-5.78,25.4,25.4,0,0,0,1.41-9.12,29.24,29.24,0,0,0-.8-7.37,18.63,18.63,0,0,0-2.1-5.16,11.19,11.19,0,0,0-3-3.3,14,14,0,0,0-3.48-1.86,16.29,16.29,0,0,0-3.59-.86,30.47,30.47,0,0,0-3.24-.2H97.3v37.63Z" fill="#2953a5"/><path d="M134.35,232h2.43V256.2L161.61,232h3.15l-18,17.52,19.13,24.6h-3L145,251.24l-8.19,8v14.86h-2.43Z" fill="#2953a5"/><path d="M182.57,232h2.65l15.6,42.12h-2.6l-5-13.51H174.33l-5,13.51h-2.6Zm9.9,26.37L184,234.49h-.11l-8.8,23.83Z" fill="#2953a5"/><path d="M0,56.64l1.32,0H65.69c0,1.36,0,2.66,0,4.09-1.46.1-2.89,0-4.31,0H52.85V184.82c.28,0,.58.07.89.07,3.07,0,6.15.06,9.23,0a22.13,22.13,0,0,0,4-.51A29.49,29.49,0,0,0,75,181.53a27.41,27.41,0,0,0,5.55-4,35.94,35.94,0,0,0,6.24-7.73A45.47,45.47,0,0,0,90.6,162a68.77,68.77,0,0,0,2.71-8.38,7.78,7.78,0,0,1,.48-1.25h4.46v36.94H1.44l-1.44,0v-4.32c3.73-.1,7.47,0,11.17-.07V60.75H9.82L0,60.72Z"/><path d="M211.91,158.56h3.6a21.16,21.16,0,0,1,0,3.56c-.13,1.28-.46,2.54-.67,3.82a30.94,30.94,0,0,1-1.74,6,28.32,28.32,0,0,1-8.38,11.57,31.36,31.36,0,0,1-6.66,4.22,33.84,33.84,0,0,1-7.93,2.55,32.94,32.94,0,0,1-6.93.72c-.67,0-1.34.24-2,.21-2.12-.11-4.25-.23-6.38-.42a32,32,0,0,1-7.56-1.7,16.71,16.71,0,0,1-7-4.63,16,16,0,0,1-3.46-6.89,29,29,0,0,1-.52-3.62,91.67,91.67,0,0,1-.19-10.74q-.06-26.55,0-53.11v-1.56c-3.41-.1-6.79,0-10.23-.06V103.7a5.43,5.43,0,0,1,.56-.09c2-.12,3.91-.37,5.86-.67a40.87,40.87,0,0,0,7.74-2,50.77,50.77,0,0,0,9-4.35c1.95-1.19,3.74-2.6,5.56-4,.85-.64,1.6-1.42,2.4-2.13s1.4-1.18,2-1.82,1.19-1.38,1.82-2a70.41,70.41,0,0,0,6.88-8.44c1.27-1.79,2.48-3.63,3.76-5.52h3.52v30.86h18.42c0,.87,0,1.65,0,2.43s0,1.51,0,2.42c-1.27.08-2.5,0-3.72,0s-2.39,0-3.59,0H195c0,.34-.07.6-.07.87v60.18c.4,2.12.11,4.32.88,6.41a3.93,3.93,0,0,0,3.4,2.7,6.89,6.89,0,0,0,6.29-2.51c2.65-2.88,4-6.39,4.93-10.07.47-1.78.82-3.59,1.19-5.39C211.77,160,211.81,159.28,211.91,158.56Z"/><path d="M124.65.06c.77.42,1.57.78,2.3,1.25a37.68,37.68,0,0,1,8,6.6,38.67,38.67,0,0,1,8.85,15.7,45.69,45.69,0,0,1,1.48,8,43.07,43.07,0,0,1,.12,7.53,58.15,58.15,0,0,1-3.44,16c-.69,1.91-1.49,3.78-2.24,5.67-.13.33-.25.67-.42,1.14a3,3,0,0,0,1.55-.68,16.19,16.19,0,0,0,4.4-5.46,33,33,0,0,0,2.83-6.84c.11-.38.24-.76.39-1.21a32,32,0,0,1,3.9,5.75,35,35,0,0,1,3.76,10.18,29.56,29.56,0,0,1,.43,8.91,27.53,27.53,0,0,1-2.66,9.13,26.69,26.69,0,0,1-4,6.08,42.1,42.1,0,0,1-8.35,7.52,17.08,17.08,0,0,0-1.1-10.61,10.82,10.82,0,0,0-3-4.28,6.42,6.42,0,0,0-.08.94,5.85,5.85,0,0,1-1.19,3.93c-1.07,1.49-2.24,2.9-3.38,4.34-.37.47-.79.9-1.18,1.35l0,0c.09-.55.17-1.1.26-1.65A24.46,24.46,0,0,0,131,78.08c-.95-3.13-2.13-6.18-3.16-9.28-.72-2.16-1.48-4.3-2-6.5a12,12,0,0,1,.06-7.28,2.15,2.15,0,0,0-1.27.47,31.05,31.05,0,0,0-8.74,8.24,32.69,32.69,0,0,0-5.5,13.37,31.43,31.43,0,0,0-.32,3.21,21.08,21.08,0,0,0-.18,2.85,35,35,0,0,0,2.31,11.38c-.4-.23-.66-.36-.89-.52a55.6,55.6,0,0,1-8.65-7.16A31.11,31.11,0,0,1,95,74.56a26.1,26.1,0,0,1-1.15-9.68A37.05,37.05,0,0,1,97,52.8a38.64,38.64,0,0,1,7.29-10.89c3.11-3.32,6.28-6.58,9.39-9.9A93.15,93.15,0,0,0,123,21.07a24.63,24.63,0,0,0,4.24-9.55,13.84,13.84,0,0,0-1-8.39c-.48-1-1-2.06-1.54-3.09Z" fill="#2953a5"/><path d="M114.37,144.16c.25,1.35.48,2.7.76,4.05.44,2.1,1.11,4.18,1.35,6.31a18.69,18.69,0,0,1-.57,8.17,17.86,17.86,0,0,1-3.4,6.28c-1.47,1.66-2.89,3.36-4.33,5-.22.26-.43.55-.66.81,0,0-.15,0-.23,0-.2-.84-.27-55.34-.06-57.09.44-.22.92-.48,1.42-.71q4.62-2.08,9.24-4.15c2.84-1.27,5.68-2.51,8.52-3.77l9.15-4.09,6.46-2.87c.39-.17.8-.3,1.3-.48v89.43c-.72.3-.8-.27-.92-.63-.28-.86-.5-1.73-.73-2.61-.67-2.61-1.36-5.23-2-7.85a18.59,18.59,0,0,1-.67-4.19c0-.58-.21-1.17-.22-1.75a21.42,21.42,0,0,1,1.1-7,1.34,1.34,0,0,0-1.24.48,26.9,26.9,0,0,0-7.07,10.1,24.92,24.92,0,0,0-1.76,6.09c-.2,1.45-.61,2.93-.13,4.47a13.34,13.34,0,0,1,.25,3h-8.82a2.33,2.33,0,0,1,.53-1.42c1-1.78,2.13-3.5,3.09-5.3a30.16,30.16,0,0,0,3.06-8,30.47,30.47,0,0,0,.38-8.19,25.56,25.56,0,0,0-2.27-8.6,31.08,31.08,0,0,0-4.65-7.21l-4.94-5.89-2-2.35-.08-.1Z"/><path d="M124.68,0l-.1,0,.07.06Z"/><path d="M131.61,90.92l-.05.08.07-.06Z"/></g></g></svg>