<?xml version="1.0" standalone="no"?>
<!DOCTYPE svg PUBLIC "-//W3C//DTD SVG 20010904//EN"
 "http://www.w3.org/TR/2001/REC-SVG-20010904/DTD/svg10.dtd">
<svg version="1.0" xmlns="http://www.w3.org/2000/svg"
 width="632.000000pt" height="632.000000pt" viewBox="0 0 632.000000 632.000000"
 preserveAspectRatio="xMidYMid meet">
<metadata>
Created by potrace 1.11, written by Peter Selinger 2001-2013
</metadata>
<g transform="translate(0.000000,632.000000) scale(0.100000,-0.100000)"
fill="#000000" stroke="none">
<path d="M2089 6281 c-47 -20 -102 -49 -122 -64 -42 -32 -99 -142 -102 -197
-1 -21 -4 -41 -8 -46 -3 -5 -8 -27 -11 -48 -11 -69 -18 -90 -43 -134 -14 -24
-23 -45 -21 -48 3 -2 29 -5 59 -5 89 -2 155 44 103 72 -23 12 -24 17 -18 63 5
46 23 88 57 140 9 15 9 19 0 23 -7 3 -13 11 -13 19 0 21 30 77 49 92 39 30
108 54 154 53 26 -1 60 5 75 12 36 18 173 14 230 -7 23 -8 53 -27 67 -41 25
-24 27 -25 58 -9 42 22 40 19 27 45 -36 67 -147 112 -279 113 -47 1 -101 -4
-120 -11 -29 -10 -38 -10 -46 0 -8 11 -27 6 -96 -22z"/>
<path d="M3682 6193 c-20 -4 -22 -9 -17 -42 6 -40 6 -41 29 -148 9 -40 18 -85
21 -100 5 -29 11 -58 21 -95 3 -13 7 -32 8 -43 4 -21 15 -78 21 -105 2 -8 4
-18 4 -23 1 -7 37 -1 77 14 l21 8 -23 103 c-13 57 -26 119 -29 138 -4 19 -19
94 -34 165 -26 123 -28 130 -52 131 -13 1 -34 0 -47 -3z"/>
<path d="M3466 6173 c-10 -26 -7 -29 51 -47 55 -18 57 -18 70 0 15 20 12 22
-74 49 -36 11 -43 11 -47 -2z"/>
<path d="M2555 6083 c-115 -17 -131 -21 -218 -45 -76 -20 -78 -22 -72 -47 4
-14 9 -29 13 -33 4 -3 40 2 81 12 76 19 167 32 235 34 37 1 40 -1 43 -29 3
-26 0 -31 -19 -32 -106 -5 -433 -89 -593 -153 -16 -6 -31 -11 -32 -11 -2 0
-29 -15 -62 -34 -33 -19 -64 -35 -70 -35 -16 0 -18 -31 -5 -85 13 -59 7 -140
-15 -183 -20 -40 -20 -42 -3 -42 10 0 22 -3 25 -6 7 -7 -23 -55 -61 -96 l-25
-27 29 -12 c16 -6 43 -12 59 -13 28 -2 30 -5 31 -47 1 -24 -7 -78 -17 -119
-18 -76 -74 -200 -90 -200 -5 0 -9 -5 -9 -11 0 -6 -11 -25 -24 -42 -29 -39
-82 -151 -90 -192 -4 -16 -9 -41 -12 -55 -8 -40 -5 -141 6 -196 9 -40 8 -57
-5 -87 -19 -46 -25 -86 -30 -212 -4 -92 -2 -107 26 -185 36 -103 56 -192 63
-285 3 -38 8 -81 10 -95 19 -85 103 -235 152 -266 21 -14 44 -16 152 -10 70 3
138 8 152 11 14 2 45 6 70 9 25 3 61 7 80 10 19 3 53 8 74 11 81 11 134 27
316 92 69 25 134 47 145 49 90 19 169 25 225 19 36 -4 86 -8 112 -10 49 -3 50
-2 175 104 l33 28 -37 42 c-20 23 -39 39 -42 34 -3 -5 -32 -30 -63 -56 l-56
-48 -66 9 c-70 9 -168 8 -226 -2 -63 -12 -154 -36 -190 -51 -178 -72 -300
-104 -459 -121 -31 -3 -69 -8 -86 -10 -16 -2 -66 -6 -110 -10 -44 -3 -93 -7
-109 -9 -21 -3 -35 3 -52 22 -13 14 -24 32 -24 39 0 8 -4 14 -9 14 -5 0 -11 8
-14 18 -4 9 -13 35 -21 57 -15 40 -20 69 -31 176 -9 88 -30 177 -65 269 -27
70 -26 236 1 309 5 13 7 26 5 29 -3 2 1 17 9 33 13 24 13 36 0 91 -31 135 3
274 100 408 95 131 136 287 127 486 -6 164 -6 196 2 234 4 19 9 53 13 75 l5
40 -28 -42 c-15 -23 -31 -40 -34 -38 -3 2 -7 24 -8 48 l-3 44 73 36 c95 46
259 100 400 131 118 26 139 30 271 50 31 4 36 18 34 86 -4 82 -30 140 -62 138
-11 -1 -56 -8 -100 -15z"/>
<path d="M3569 6086 c-2 -3 -20 -8 -38 -11 -58 -10 -87 -36 -65 -58 6 -6 105
21 115 31 8 8 -4 46 -12 38z"/>
<path d="M3551 5988 c-45 -47 -47 -51 -28 -67 11 -8 23 -2 55 31 46 46 48 50
28 67 -10 9 -22 2 -55 -31z"/>
<path d="M2638 5825 c-2 -11 -1 -34 3 -51 3 -18 5 -51 3 -75 -8 -100 -13 -198
-14 -255 0 -122 -46 -133 -237 -56 -155 61 -176 76 -176 125 0 20 -5 37 -11
38 -6 0 -22 2 -35 5 -30 5 -40 -8 -36 -50 7 -67 47 -123 103 -144 15 -6 80
-31 144 -56 176 -69 242 -65 308 18 11 14 17 60 23 165 11 208 13 312 5 317
-3 2 -4 12 -1 22 4 15 -2 18 -36 18 -33 0 -41 -4 -43 -21z"/>
<path d="M3950 5838 c0 -7 -6 -25 -14 -39 -13 -26 -12 -28 31 -64 42 -36 44
-38 36 -78 -7 -42 -8 -193 -1 -447 2 -74 2 -139 -1 -145 -2 -5 -6 -23 -8 -40
-5 -50 -33 -159 -46 -175 -18 -23 -62 -49 -91 -54 -14 -3 -30 -7 -36 -11 -11
-7 -102 -23 -175 -31 -27 -3 -73 -11 -100 -18 -67 -17 -62 -18 -347 74 -32 10
-58 14 -58 9 0 -5 10 -29 22 -52 40 -77 57 -164 54 -268 -2 -53 -9 -105 -15
-117 -10 -19 -8 -22 21 -30 18 -6 40 -13 49 -16 17 -8 24 7 37 74 8 45 8 173
0 227 l-6 42 27 -11 c14 -5 54 -18 88 -28 60 -18 64 -18 150 1 48 10 111 21
140 24 105 9 270 66 300 105 28 35 63 119 68 165 4 27 8 52 10 56 5 8 16 127
19 204 1 28 -2 84 -7 125 -12 110 -13 176 -4 255 15 119 14 139 -5 175 -19 35
-101 100 -126 100 -6 0 -12 -6 -12 -12z"/>
<path d="M2515 5553 c-37 -5 -55 -27 -55 -69 0 -46 29 -51 118 -23 31 10 42
32 22 44 -5 3 -10 17 -10 31 0 25 -5 26 -75 17z m45 -54 c-14 -4 -34 -7 -44
-8 -28 -1 -7 16 24 21 35 6 50 -5 20 -13z"/>
<path d="M3745 5442 c-12 -53 -56 -197 -64 -212 -5 -8 -19 -14 -32 -12 -46 5
-160 3 -210 -3 -44 -6 -55 -3 -97 24 -56 36 -132 69 -175 76 -16 3 -33 7 -36
9 -15 9 -116 19 -206 20 l-100 1 -1 -47 -1 -48 91 -1 c50 0 98 -2 106 -4 8 -1
33 -6 55 -9 100 -16 190 -55 250 -107 20 -18 41 -29 50 -25 19 7 128 19 175
19 52 1 140 -12 159 -22 9 -5 22 -7 28 -3 10 6 56 145 83 247 4 17 12 42 18
57 12 30 11 32 -47 52 -39 14 -39 14 -46 -12z"/>
<path d="M2672 5148 c-23 -18 -56 -42 -73 -53 -18 -11 -32 -24 -32 -30 1 -5
-3 -18 -8 -27 -7 -14 -15 -15 -45 -6 -29 7 -54 5 -118 -10 -94 -24 -128 -31
-175 -37 -45 -5 -52 -14 -45 -56 l6 -35 132 28 c72 16 141 31 152 33 12 3 52
-4 89 -16 37 -11 69 -18 71 -16 3 2 7 24 9 48 2 24 4 47 4 50 1 3 26 23 56 43
77 54 80 58 46 90 l-28 27 -41 -33z"/>
<path d="M2241 4459 c-55 -54 -70 -169 -33 -251 14 -33 27 -47 45 -50 46 -9
54 5 34 64 -9 29 -17 60 -18 68 -4 48 4 82 25 107 22 26 23 31 11 61 -17 40
-26 40 -64 1z"/>
<path d="M3030 4377 c0 -95 3 -104 34 -98 5 1 16 -1 25 -6 9 -4 -56 -10 -144
-13 -184 -7 -209 -15 -310 -100 l-60 -51 -176 4 -177 4 -4 -67 c-5 -66 -45
-175 -71 -192 -9 -6 -4 -16 16 -33 15 -14 34 -25 40 -25 16 0 86 148 89 189 1
18 7 35 13 39 5 4 74 6 151 5 l142 -2 43 31 c24 17 53 40 64 51 11 10 38 28
60 40 37 20 58 22 273 27 l234 5 -117 140 c-65 77 -119 142 -121 144 -2 2 -4
-39 -4 -92z"/>
<path d="M3292 4220 c1 -16 6 -30 12 -31 107 -10 150 -1 150 32 0 23 -2 24
-81 27 l-82 3 1 -31z"/>
<path d="M3136 4162 c-3 -3 -6 -18 -6 -34 0 -20 5 -28 18 -29 23 -1 250 -1
284 0 23 1 26 4 22 28 -3 15 -7 29 -9 31 -7 7 -245 7 -245 0 0 -4 -13 -3 -29
2 -16 4 -32 6 -35 2z"/>
<path d="M3300 4035 l0 -41 75 1 c61 1 79 -2 92 -17 14 -15 33 -18 120 -18 89
0 109 -3 130 -20 25 -19 25 -19 46 0 18 17 35 20 119 20 68 0 108 -5 127 -15
25 -12 33 -12 57 -1 30 14 212 21 267 10 38 -8 55 -49 31 -75 -10 -11 -28 -19
-41 -19 -15 0 -23 -6 -24 -17 -5 -68 -5 -68 21 -65 88 11 133 54 133 128 0 53
-38 108 -85 123 -18 5 -100 10 -183 10 -82 -1 -154 0 -160 1 -5 1 -68 0 -140
0 -71 -1 -139 -2 -150 -2 -11 1 -66 2 -123 2 -82 2 -104 5 -111 18 -7 12 -28
16 -105 17 l-96 1 0 -41z"/>
<path d="M2595 3870 c-2 -3 -5 -23 -6 -45 l-4 -40 160 -2 c88 -2 180 -4 205
-5 43 -3 45 -2 42 22 -1 14 -13 36 -26 48 -23 23 -29 24 -196 25 -94 1 -173 0
-175 -3z"/>
<path d="M4067 3852 c-2 -4 -3 -23 -3 -42 2 -32 4 -35 34 -34 36 1 36 1 22
-27 -13 -24 8 -69 46 -96 39 -28 24 -43 -28 -31 -40 10 -87 49 -88 74 0 18
-87 101 -127 120 -35 17 -63 19 -323 19 l-285 -1 -1 -29 c0 -17 1 -35 3 -41 2
-7 89 -10 261 -9 141 0 272 -3 291 -6 41 -9 82 -47 128 -119 33 -52 54 -72 78
-76 6 -1 36 -7 68 -13 54 -12 59 -11 86 11 30 24 49 52 52 78 3 31 -1 73 -7
67 -8 -8 -62 12 -67 26 -5 12 1 28 32 87 11 19 17 38 15 42 -5 8 -183 8 -187
0z"/>
<path d="M3431 3474 l-33 -36 21 -20 c12 -10 34 -22 48 -24 15 -3 31 -7 35
-10 5 -3 24 -8 41 -11 51 -8 64 -20 71 -62 6 -37 9 -41 49 -51 50 -13 166 -48
187 -57 8 -3 17 -7 20 -8 77 -27 215 -94 329 -160 112 -65 291 -192 310 -220
25 -38 26 -85 1 -190 -6 -27 -13 -57 -15 -65 -2 -8 -17 -77 -34 -153 -17 -75
-38 -172 -46 -215 -26 -129 -1 -117 -241 -115 -115 0 -219 2 -232 2 -24 1 -24
6 -5 96 5 24 9 46 17 100 4 22 9 51 12 65 15 79 17 92 15 106 -1 10 -29 20
-81 29 -16 3 -59 13 -195 45 -376 89 -728 170 -740 170 -10 0 -33 -35 -61 -92
-51 -103 -255 -499 -266 -514 -4 -7 -667 -11 -720 -5 -3 1 29 139 73 309 53
208 81 334 85 392 3 47 7 103 9 125 18 245 18 255 -2 256 -10 0 -34 2 -53 4
l-35 4 -3 -72 c-2 -40 -5 -83 -7 -97 -2 -14 -7 -72 -10 -130 -4 -58 -8 -119
-10 -135 -7 -64 -158 -641 -170 -650 -7 -6 -153 -10 -396 -9 -211 1 -386 -2
-389 -7 -3 -4 -5 -446 -4 -982 1 -882 -1 -976 -15 -979 -9 -2 -98 -3 -198 -3
l-183 1 0 -53 0 -53 2550 0 2550 0 0 53 0 53 -162 -1 c-90 -1 -168 0 -174 2
-8 3 -12 263 -12 961 0 526 -1 969 -1 983 l-1 26 -421 -1 c-231 -1 -425 1
-430 4 -5 3 3 57 16 120 14 63 28 126 31 140 2 14 20 95 40 181 72 318 58 352
-218 526 -259 164 -338 204 -533 269 l-130 43 -15 53 -16 53 -47 2 c-40 2
-107 17 -157 37 -9 4 -28 -8 -49 -30z m-326 -924 c28 -6 95 -22 150 -35 55
-13 111 -26 125 -29 14 -3 127 -29 252 -58 l228 -53 -4 -33 c-11 -85 -39 -241
-46 -253 -7 -10 -118 -12 -522 -11 -282 0 -516 1 -521 1 -5 1 208 433 239 482
5 9 15 8 99 -11z m2150 -1512 c0 -920 0 -927 -20 -930 -11 -2 -942 -3 -2070
-3 l-2050 1 -1 932 0 932 2070 -2 2071 -3 0 -927z"/>
</g>
</svg>
