<svg xmlns="http://www.w3.org/2000/svg" width="1466.667" height="1466.667" preserveAspectRatio="xMidYMid meet" version="1.0" viewBox="0 0 1100 1100"><metadata>Created by potrace 1.11, written by Peter Selinger 2001-2013</metadata><g fill="#000" stroke="none"><path d="M5465 10840 c3 -5 8 -10 11 -10 2 0 4 5 4 10 0 6 -5 10 -11 10 -5 0 -7 -4 -4 -10z" transform="translate(0.000000,1100.000000) scale(0.100000,-0.100000)"/><path d="M5492 10814 c2 -5 43 -90 92 -188 48 -98 89 -184 91 -190 1 -6 5 -20 9 -31 5 -11 15 -38 23 -60 8 -22 17 -48 19 -57 2 -10 7 -28 10 -40 3 -13 7 -36 10 -53 3 -16 9 -46 14 -65 26 -102 30 -398 6 -510 -1 -8 -6 -33 -10 -55 -11 -58 -45 -192 -63 -250 -47 -151 -155 -414 -176 -427 -7 -4 -8 -8 -4 -8 7 0 -25 -63 -72 -142 -9 -14 -30 -50 -47 -80 -31 -52 -161 -238 -174 -248 -4 -3 -11 -12 -16 -21 -5 -9 -21 -32 -36 -50 -15 -19 -72 -92 -128 -163 -95 -122 -220 -276 -247 -304 -7 -7 -29 -33 -50 -59 -21 -25 -51 -61 -68 -79 -16 -17 -59 -64 -95 -104 -104 -116 -113 -125 -300 -320 -271 -282 -380 -396 -640 -670 -74 -78 -162 -171 -195 -205 -33 -35 -103 -109 -155 -165 -52 -56 -111 -119 -130 -139 -102 -110 -120 -131 -120 -142 0 -7 -3 -9 -6 -6 -4 4 -23 -15 -42 -41 -20 -26 -39 -49 -43 -52 -10 -7 -199 -260 -199 -266 0 -3 -18 -29 -40 -59 -22 -30 -40 -57 -40 -60 0 -3 -16 -28 -36 -56 -19 -28 -38 -58 -42 -67 -4 -9 -26 -49 -49 -89 -24 -39 -43 -76 -43 -82 0 -6 -5 -11 -12 -11 -6 0 -8 -3 -5 -7 4 -3 2 -12 -3 -18 -12 -14 -92 -175 -95 -190 -5 -20 -49 -110 -58 -116 -5 -3 -8 -9 -7 -13 2 -7 -44 -133 -67 -182 -8 -17 -15 -41 -16 -53 -1 -11 -6 -21 -11 -21 -5 0 -6 -3 -3 -7 4 -3 0 -17 -8 -30 -9 -13 -13 -23 -10 -23 3 0 -6 -29 -20 -65 -13 -36 -23 -65 -21 -65 2 0 -5 -28 -16 -62 -11 -35 -21 -72 -24 -83 -5 -25 -9 -44 -28 -122 -9 -34 -18 -75 -21 -90 -2 -15 -7 -39 -10 -53 -6 -27 -9 -50 -20 -120 -4 -25 -9 -54 -11 -65 -4 -20 -12 -86 -20 -155 -2 -19 -6 -69 -8 -110 -3 -41 -6 -75 -6 -75 -8 0 4 -352 14 -430 3 -16 8 -59 11 -95 4 -36 9 -68 12 -72 2 -4 6 -20 8 -35 18 -134 118 -475 163 -560 6 -11 8 -23 5 -27 -3 -3 -1 -6 5 -6 7 0 12 -6 12 -14 0 -8 21 -59 46 -113 26 -54 45 -100 44 -102 -1 -2 2 -7 7 -10 5 -3 24 -35 42 -71 18 -36 41 -78 51 -95 11 -16 27 -43 36 -60 27 -48 108 -170 117 -173 4 -2 7 -10 7 -18 0 -8 5 -14 10 -14 6 0 10 -5 10 -10 0 -6 11 -23 25 -38 14 -15 25 -31 25 -36 0 -5 8 -16 18 -25 10 -9 23 -23 28 -32 10 -18 70 -90 144 -173 64 -73 355 -360 436 -431 37 -33 80 -72 96 -87 15 -14 28 -23 28 -20 0 4 4 2 8 -3 15 -21 130 -115 141 -115 6 0 11 -4 11 -9 0 -4 55 -48 121 -97 67 -49 130 -97 140 -106 11 -10 21 -18 24 -18 3 0 47 -29 98 -63 125 -87 119 -84 111 -50 -4 15 -9 33 -13 38 -3 6 -6 12 -6 15 -1 3 -12 37 -25 75 -13 39 -24 72 -25 75 0 3 -4 11 -8 18 -5 6 -6 12 -3 12 3 0 -4 25 -14 55 -10 30 -21 71 -24 91 -4 20 -9 41 -13 47 -4 6 -8 20 -9 32 -2 11 -10 51 -19 90 -9 38 -18 81 -20 95 -2 14 -8 50 -14 80 -13 72 -22 127 -26 170 -2 19 -7 53 -10 75 -17 122 -22 342 -11 480 4 50 9 117 11 150 7 114 20 238 30 295 3 19 8 47 10 63 13 76 22 122 29 145 5 16 7 28 21 100 3 15 13 52 21 82 9 30 16 56 15 57 0 2 7 22 15 45 9 24 17 50 19 58 4 19 41 130 56 167 90 222 201 461 221 474 6 3 8 8 7 10 -2 2 24 48 57 102 32 54 64 105 69 115 20 33 70 107 80 118 6 6 28 36 49 67 22 32 43 57 48 57 4 0 8 6 8 14 0 8 3 16 8 18 4 1 46 48 93 103 97 113 236 255 250 255 5 0 9 6 9 14 0 8 4 16 9 18 10 4 71 53 121 98 19 18 80 65 135 106 55 41 105 78 110 82 14 11 92 63 142 96 40 27 127 59 136 50 2 -2 -6 -42 -18 -88 -31 -115 -39 -180 -39 -331 0 -118 5 -194 19 -250 2 -11 9 -38 14 -60 6 -22 10 -40 10 -40 0 0 2 -7 4 -15 8 -26 28 -104 30 -120 2 -8 6 -20 10 -27 4 -6 9 -24 11 -40 2 -15 8 -39 14 -53 5 -14 10 -27 10 -30 1 -14 15 -66 21 -75 3 -5 6 -14 7 -20 2 -8 96 -296 108 -330 2 -5 4 -13 5 -17 1 -4 9 -27 17 -50 9 -24 17 -47 18 -53 2 -5 6 -17 9 -25 4 -8 27 -73 51 -145 25 -71 70 -202 101 -290 68 -195 117 -337 120 -350 1 -5 5 -17 8 -25 8 -20 58 -182 61 -195 1 -5 5 -16 9 -22 5 -7 6 -13 2 -13 -3 0 -1 -8 4 -18 6 -11 13 -31 16 -45 13 -64 17 -83 28 -127 10 -38 27 -127 31 -167 2 -16 5 -28 6 -28 1 0 3 -13 4 -30 1 -16 6 -70 11 -120 11 -116 11 -325 1 -440 -13 -139 -14 -150 -16 -150 -1 0 -3 -16 -5 -35 -2 -19 -8 -66 -14 -105 -15 -100 -14 -104 14 -70 14 17 38 44 53 60 16 17 71 84 122 150 52 66 99 125 105 132 18 21 29 36 118 153 48 63 90 120 95 125 18 24 71 115 67 115 -3 0 1 14 10 30 9 17 13 30 10 30 -3 0 -1 9 5 21 18 33 28 107 31 237 1 50 3 92 6 92 7 0 108 -104 149 -155 47 -59 109 -158 146 -235 31 -66 79 -178 83 -194 1 -6 7 -24 14 -41 20 -48 59 -188 70 -251 6 -33 13 -70 16 -84 11 -51 29 -302 26 -345 0 -5 -3 -39 -5 -75 -6 -75 -14 -144 -21 -180 -3 -14 -8 -42 -12 -64 -5 -35 -4 -37 13 -28 36 19 200 141 235 175 11 9 22 17 25 17 4 0 23 15 43 33 20 17 61 52 91 77 137 113 375 352 494 496 28 32 57 66 65 75 9 9 25 29 36 45 11 15 38 50 60 78 108 136 212 309 316 522 43 90 79 170 79 177 0 7 4 17 8 23 8 9 61 143 66 167 2 6 6 19 9 27 3 8 14 42 23 75 17 59 20 68 28 102 3 10 5 18 6 18 1 0 4 11 6 25 3 14 9 41 14 60 5 19 12 51 15 70 3 19 10 53 15 75 8 35 13 72 25 175 14 122 18 200 18 355 0 195 -5 335 -13 335 -3 0 -6 19 -6 43 -2 57 -9 106 -40 272 -8 46 -64 278 -71 295 -3 8 -8 24 -10 34 -2 11 -10 40 -19 65 -9 25 -17 53 -19 61 -14 59 -111 309 -141 363 -8 15 -13 27 -10 27 6 0 -116 245 -164 329 -17 30 -41 73 -53 95 -45 82 -204 323 -234 354 -13 13 -23 27 -23 32 0 5 -12 22 -27 38 -16 16 -43 49 -60 72 -18 24 -34 41 -34 37 -2 -11 -5 -21 -12 -37 -6 -17 -30 -89 -33 -105 -2 -5 -5 -19 -8 -30 -13 -55 -115 -335 -141 -390 -13 -29 -26 -65 -26 -75 0 -3 -6 -12 -12 -20 -7 -8 -33 -58 -57 -110 -25 -52 -47 -97 -50 -100 -3 -3 -18 -30 -34 -60 -48 -90 -51 -95 -57 -100 -4 -3 -9 -15 -13 -27 -4 -13 -12 -23 -17 -23 -5 0 -9 -6 -9 -14 0 -8 -3 -16 -8 -18 -4 -1 -26 -30 -50 -63 -45 -65 -212 -253 -225 -254 -4 -1 -18 -11 -30 -24 -84 -87 -251 -168 -239 -116 5 22 93 242 105 264 6 11 10 26 9 33 -2 6 2 12 8 12 5 0 10 10 10 23 0 13 4 27 8 33 5 5 21 41 37 79 15 39 34 84 41 100 7 17 22 57 33 90 12 33 24 67 28 75 3 8 7 20 9 25 1 6 17 48 34 95 18 47 33 90 34 95 1 6 9 30 18 55 18 48 50 158 52 175 1 6 4 12 8 15 3 3 9 19 12 35 3 17 25 107 50 200 24 94 46 184 49 200 10 52 18 89 22 105 6 22 17 82 19 105 1 11 5 26 9 33 5 6 6 12 4 12 -4 0 2 41 17 120 2 14 7 45 10 70 4 25 9 68 13 95 3 28 7 62 7 78 1 15 3 27 6 27 3 0 5 12 6 28 0 15 3 61 7 102 17 175 21 268 21 500 1 221 -6 384 -19 495 -2 22 -7 63 -10 90 -13 120 -16 143 -27 200 -6 33 -12 74 -13 90 -1 17 -5 41 -9 55 -3 14 -8 36 -10 50 -3 14 -10 50 -17 80 -6 30 -12 64 -13 76 -1 11 -5 24 -8 30 -3 5 -9 27 -13 49 -5 22 -10 45 -11 50 -3 9 -21 82 -29 115 -2 8 -9 29 -14 45 -6 17 -24 75 -41 130 -17 55 -37 116 -44 135 -8 19 -26 67 -41 105 -33 83 -52 130 -71 169 -8 16 -14 35 -14 43 0 7 -4 13 -10 13 -5 0 -10 6 -10 14 0 16 -120 256 -137 274 -7 7 -13 17 -13 22 0 5 -22 45 -50 89 -27 45 -46 81 -42 81 4 0 2 4 -3 8 -6 4 -48 63 -94 131 -46 68 -87 129 -92 135 -5 6 -29 38 -54 71 -46 61 -86 110 -125 155 -12 14 -40 47 -63 73 -101 116 -216 237 -227 237 -5 0 -12 9 -15 21 -4 11 -9 19 -11 16 -2 -2 -28 19 -57 47 -63 60 -102 95 -177 156 -30 25 -57 47 -60 50 -13 13 -211 160 -239 176 -17 10 -31 22 -31 26 0 4 -4 8 -10 8 -5 0 -53 28 -107 63 -54 34 -116 71 -138 82 -22 11 -41 23 -43 28 -2 4 -12 7 -22 7 -10 0 -20 4 -22 9 -1 4 -14 12 -27 16 -13 4 -22 3 -19 -1z" transform="translate(0.000000,1100.000000) scale(0.100000,-0.100000)"/></g></svg>